HIERARCHY
ROOT Hips
{
	OFFSET 0.000000 0.000000 0.000000
	CHANNELS 6 Xposition Yposition Zposition Zrotation Yrotation Xrotation 
	JOINT LHipJoint
	{
		OFFSET 0.000000 0.000000 0.000000
		CHANNELS 3 Zrotation Yrotation Xrotation
		JOINT LeftUpLeg
		{
			OFFSET 1.363060 -1.794630 0.839290
			CHANNELS 3 Zrotation Yrotation Xrotation
			JOINT LeftLeg
			{
				OFFSET 2.448110 -6.726130 0.000000
				CHANNELS 3 Zrotation Yrotation Xrotation
				JOINT LeftFoot
				{
					OFFSET 2.562200 -7.039590 0.000000
					CHANNELS 3 Zrotation Yrotation Xrotation
					JOINT LeftToeBase
					{
						OFFSET 0.157640 -0.433110 2.322550
						CHANNELS 3 Zrotation Yrotation Xrotation
						End Site
						{
							OFFSET 0.000000 0.000000 0.000000
						}
					}
				}
			}
		}
	}
	JOINT RHipJoint
	{
		OFFSET 0.000000 0.000000 0.000000
		CHANNELS 3 Zrotation Yrotation Xrotation
		JOINT RightUpLeg
		{
			OFFSET -1.305520 -1.794630 0.839290
			CHANNELS 3 Zrotation Yrotation Xrotation
			JOINT RightLeg
			{
				OFFSET -2.542530 -6.985550 0.000000
				CHANNELS 3 Zrotation Yrotation Xrotation
				JOINT RightFoot
				{
					OFFSET -2.568260 -7.056230 0.000000
					CHANNELS 3 Zrotation Yrotation Xrotation
					JOINT RightToeBase
					{
						OFFSET -0.164730 -0.452590 2.363150
						CHANNELS 3 Zrotation Yrotation Xrotation
						End Site
						{
							OFFSET 0.000000 0.000000 0.000000
						}
					}
				}
			}
		}
	}
	JOINT LowerBack
	{
		OFFSET 0.000000 0.000000 0.000000
		CHANNELS 3 Zrotation Yrotation Xrotation
		JOINT Spine
		{
			OFFSET 0.028270 2.035590 -0.193380
			CHANNELS 3 Zrotation Yrotation Xrotation
			JOINT Spine1
			{
				OFFSET 0.056720 2.048850 -0.042750
				CHANNELS 3 Zrotation Yrotation Xrotation
				JOINT Neck
				{
					OFFSET 0.000000 0.000000 0.000000
					CHANNELS 3 Zrotation Yrotation Xrotation
					JOINT Neck1
					{
						OFFSET -0.054170 1.746240 0.172020
						CHANNELS 3 Zrotation Yrotation Xrotation
						JOINT Head
						{
							OFFSET 0.104070 1.761360 -0.123970
							CHANNELS 3 Zrotation Yrotation Xrotation
							End Site
							{
								OFFSET 0.000000 0.000000 0.000000
							}
						}
					}
				}
				JOINT LeftShoulder
				{
					OFFSET 0.000000 0.000000 0.000000
					CHANNELS 3 Zrotation Yrotation Xrotation
					JOINT LeftArm
					{
						OFFSET 3.362410 1.200890 -0.311210
						CHANNELS 3 Zrotation Yrotation Xrotation
						JOINT LeftForeArm
						{
							OFFSET 4.983000 -0.000000 -0.000000
							CHANNELS 3 Zrotation Yrotation Xrotation
							JOINT LeftHand
							{
								OFFSET 3.483560 -0.000000 -0.000000
								CHANNELS 3 Zrotation Yrotation Xrotation
								JOINT LeftFingerBase
								{
									OFFSET 0.000000 0.000000 0.000000
									CHANNELS 3 Zrotation Yrotation Xrotation
									JOINT LeftHandIndex1
									{
										OFFSET 0.715260 -0.000000 -0.000000
										CHANNELS 3 Zrotation Yrotation Xrotation
										End Site
										{
											OFFSET 0.000000 0.000000 0.000000
										}
									}
								}
								JOINT LThumb
								{
									OFFSET 0.000000 0.000000 0.000000
									CHANNELS 3 Zrotation Yrotation Xrotation
									End Site
									{
										OFFSET 0.000000 0.000000 0.000000
									}
								}
							}
						}
					}
				}
				JOINT RightShoulder
				{
					OFFSET 0.000000 0.000000 0.000000
					CHANNELS 3 Zrotation Yrotation Xrotation
					JOINT RightArm
					{
						OFFSET -3.136600 1.374050 -0.404650
						CHANNELS 3 Zrotation Yrotation Xrotation
						JOINT RightForeArm
						{
							OFFSET -5.241900 -0.000000 -0.000000
							CHANNELS 3 Zrotation Yrotation Xrotation
							JOINT RightHand
							{
								OFFSET -3.444170 -0.000000 -0.000000
								CHANNELS 3 Zrotation Yrotation Xrotation
								JOINT RightFingerBase
								{
									OFFSET 0.000000 0.000000 0.000000
									CHANNELS 3 Zrotation Yrotation Xrotation
									JOINT RightHandIndex1
									{
										OFFSET -0.622530 -0.000000 -0.000000
										CHANNELS 3 Zrotation Yrotation Xrotation
										End Site
										{
											OFFSET 0.000000 0.000000 0.000000
										}
									}
								}
								JOINT RThumb
								{
									OFFSET 0.000000 0.000000 0.000000
									CHANNELS 3 Zrotation Yrotation Xrotation
									End Site
									{
										OFFSET 0.000000 0.000000 0.000000
									}
								}
							}
						}
					}
				}
			}
		}
	}
}
MOTION
Frames: 11
Frame Time: 0.016667
0.018800 18.782657 -0.085590 0.097487 -9.879032 -3.953570 -9.962548 -7.246623 -16.374146 -0.531524 0.033814 -10.407354 17.021979 14.059268 30.479926 5.066119 25.066993 57.125304 0.000000 0.000000 0.000000 8.933762 -13.529401 14.698174 2.406494 8.180886 -5.333781 18.672277 -17.216379 32.819275 15.997811 -45.909304 28.801155 0.000000 0.000000 0.000000 -0.211773 9.119915 -1.269291 7.127625 3.484533 44.711119 -3.325975 8.031127 -9.703066 -1.344786 3.007938 -9.128832 -6.552586 -1.159883 -44.096210 0.000000 0.000000 0.000000 30.729396 21.627557 3.173838 -82.843823 -10.295221 14.038661 -115.908258 -10.190488 1.068619 -4.577655 -0.802118 0.536917 -4.630304 -0.799727 0.000000 0.000000 0.000000 0.000000 0.000000 0.000000 0.000000 -32.154135 -14.226230 7.205330 88.669682 13.807531 -1.105969 -78.196766 43.780705 -1.550584 -37.479655 27.742870 -1.402388 -39.390390 25.497768 0.000000 0.000000 0.000000 0.000000 0.000000 0.000000 0.000000 
0.103199 18.378974 0.092240 1.913140 -1.097866 -1.500565 -4.748928 2.363242 -15.189184 -21.282888 -2.068573 -5.015464 23.447641 3.181460 11.199271 2.176630 20.206628 53.665603 0.000000 0.000000 0.000000 1.627771 -18.924108 13.408912 11.362646 8.219572 -3.450315 15.773499 -17.282728 32.524973 18.991520 -40.945583 21.129266 0.000000 0.000000 0.000000 4.524924 11.800178 -0.004226 -8.726738 8.349355 41.099426 9.523663 4.970218 -18.005399 11.866019 -0.368634 -9.970097 -13.751478 -3.388921 -20.768527 0.000000 0.000000 0.000000 24.742871 13.250005 2.225798 -95.731654 -15.021007 6.255443 -62.261768 -4.496244 -0.009513 -0.993653 -1.587489 -0.004813 -0.992584 -1.588373 -0.000000 0.000000 0.000000 0.000000 0.000000 0.000000 0.000000 -27.699537 -17.114885 -5.374809 87.512362 24.763866 -2.040653 -22.126785 -43.175674 1.500827 -18.108039 26.682413 0.661273 -18.554731 26.299392 0.000000 0.000000 0.000000 0.000000 0.000000 0.000000 0.000000 
0.189781 17.980240 0.269753 2.356790 4.487692 4.766733 -1.650347 14.433857 -6.390922 -30.196401 -3.899075 -5.436447 20.676563 -7.401651 -17.591133 1.587533 17.795254 59.383767 0.000000 0.000000 0.000000 -2.804980 -23.551341 8.983038 23.931383 8.208850 -0.198186 6.465667 -14.799356 33.354724 21.118671 -32.906295 11.417735 0.000000 0.000000 0.000000 7.207654 9.000939 -0.786557 -15.633301 7.053891 39.140615 12.925138 2.068298 -21.975898 12.529372 -2.510787 -7.834233 -13.807236 -1.903444 -6.482375 0.000000 0.000000 0.000000 16.156454 15.142404 0.038092 -89.612637 -16.372703 5.053158 -49.472517 -4.699518 -0.065285 -0.134960 -2.654335 -0.032680 -0.132765 -2.655083 -0.000000 0.000000 0.000000 0.000000 0.000000 0.000000 0.000000 -16.686399 -16.642303 -2.193895 101.152155 19.407558 2.415725 -60.349657 -13.365100 1.787870 -1.835423 14.138906 0.895350 -1.758398 14.180328 0.000000 0.000000 0.000000 0.000000 0.000000 0.000000 0.000000 
-0.042605 17.972745 0.442820 2.353223 6.411556 7.441798 -1.018965 14.806597 -4.829658 -29.029797 -6.560298 -8.485007 17.895507 -8.760806 -18.054401 1.825192 17.073882 59.550483 0.000000 0.000000 0.000000 5.177315 -20.725629 10.408483 13.857153 9.590778 -7.846824 13.455432 -18.613569 32.554311 23.705445 -35.446183 8.257765 0.000000 0.000000 0.000000 -0.761922 5.543458 -0.743923 -3.399970 2.373673 38.888370 7.694769 2.273507 -23.645201 15.358704 -3.400394 -1.822678 -12.699526 -1.736335 -7.138852 0.000000 0.000000 0.000000 10.296326 18.641082 -2.193270 -83.860662 -16.236529 7.647236 -58.587718 -8.612705 -0.089827 -0.318934 -3.537540 -0.045050 -0.313120 -3.539392 -0.000000 0.000000 0.000000 0.000000 0.000000 0.000000 0.000000 -18.512076 -17.641919 -4.668708 100.966293 20.470125 4.631728 -55.671726 -20.573489 1.667479 -1.218088 13.363501 0.835101 -1.146953 13.402248 0.000000 0.000000 0.000000 0.000000 0.000000 0.000000 0.000000 
-0.131113 17.966519 0.644975 2.657141 7.032421 10.205343 -2.188270 14.673374 -3.253373 -26.631898 -8.577724 -11.727958 16.235240 -9.749629 -19.283909 1.930571 16.641652 59.371141 0.000000 0.000000 0.000000 10.743550 -18.805239 11.150505 6.150434 9.966489 -13.348068 17.670591 -20.693480 31.743272 25.738364 -37.467032 6.782422 0.000000 0.000000 0.000000 -4.152083 3.605450 0.314750 3.494869 -0.166199 36.976968 2.110411 1.847370 -25.042508 15.027810 -3.461906 4.274990 -9.252148 -1.106165 -6.230659 0.000000 0.000000 0.000000 5.652872 20.159156 -4.560388 -77.636492 -15.824402 12.952866 -69.014248 -15.867761 -0.064836 -0.814805 -4.908239 -0.032918 -0.802316 -4.912536 -0.000000 0.000000 0.000000 0.000000 0.000000 0.000000 0.000000 -19.021284 -19.394701 -6.553011 100.238085 20.340889 6.818940 -50.321657 -27.146679 1.541365 -0.793215 12.702453 0.771871 -0.729480 12.737501 0.000000 0.000000 0.000000 0.000000 0.000000 0.000000 0.000000 
-0.215443 17.995415 0.750244 2.815067 7.826493 9.235925 -1.264565 13.572553 -3.823113 -27.123214 -7.796990 -9.744384 16.525471 -9.630646 -18.843757 1.979751 16.448941 58.979808 0.000000 0.000000 0.000000 12.816985 -17.371900 11.701065 3.342993 8.679543 -13.434181 19.283412 -21.389551 30.936162 27.403229 -40.466540 7.021521 0.000000 0.000000 0.000000 -6.985763 3.362557 -0.127118 8.031424 -1.882443 42.511842 -0.242501 1.531566 -28.939205 14.769774 -3.280652 0.679962 -8.409505 -1.124950 -5.977933 0.000000 0.000000 0.000000 4.776300 19.370153 -6.024661 -78.062496 -13.989371 18.396002 -75.403555 -22.126703 0.080435 -1.499618 -6.038509 0.039263 -1.485127 -6.046060 0.000000 0.000000 0.000000 0.000000 0.000000 0.000000 0.000000 -20.549320 -19.072470 -6.398268 99.647873 19.768675 8.064791 -46.431068 -28.096276 1.395058 -0.321884 11.431577 0.698591 -0.268318 11.463718 0.000000 0.000000 0.000000 0.000000 0.000000 0.000000 0.000000 
-0.298217 18.024904 0.883528 2.802454 8.715471 8.496529 -0.201384 13.195020 -3.961839 -27.807319 -7.477832 -8.379065 16.638813 -9.703790 -18.349378 1.965308 16.145946 58.706698 0.000000 0.000000 0.000000 14.953591 -16.517867 12.591749 0.720963 7.696115 -13.960956 20.727478 -21.837561 30.163680 29.137090 -43.476707 7.153195 0.000000 0.000000 0.000000 -10.206235 3.005464 -1.111377 13.136946 -4.027951 47.209320 -2.530263 1.043876 -31.976716 14.262582 -2.831208 -2.298567 -7.418249 -1.104588 -6.160540 0.000000 0.000000 0.000000 4.688121 18.172772 -8.338866 -79.737452 -10.853900 25.913095 -80.763258 -30.122053 0.346315 -2.065913 -7.277650 0.171744 -2.056080 -7.290219 0.000000 0.000000 0.000000 0.000000 0.000000 0.000000 0.000000 -22.591152 -18.358927 -6.009979 98.958342 19.196866 9.154918 -41.619548 -28.822767 1.235807 -0.068384 10.292126 0.618758 -0.025642 10.320291 0.000000 0.000000 0.000000 0.000000 0.000000 0.000000 0.000000 
-0.345147 18.064776 1.043110 2.620065 9.051517 8.513408 0.295797 13.221446 -3.625490 -27.902789 -7.808834 -8.374522 16.828206 -9.748670 -17.740735 1.817025 15.814812 58.203148 0.000000 0.000000 0.000000 16.239760 -16.392506 13.154517 -0.413889 7.253080 -14.404167 20.982943 -21.564211 29.574254 29.938567 -45.470570 7.882700 0.000000 0.000000 0.000000 -12.157774 2.932011 -1.834554 15.635483 -4.854790 48.440941 -2.308283 1.053721 -33.526385 13.702633 -2.591606 -3.777971 -7.136009 -1.056676 -5.124087 0.000000 0.000000 0.000000 5.570169 17.933071 -9.441942 -82.393040 -7.555992 31.171116 -80.718426 -37.655579 0.620918 -2.625037 -7.545345 0.309695 -2.634779 -7.559686 0.000000 0.000000 0.000000 0.000000 0.000000 0.000000 0.000000 -22.860370 -17.606635 -5.209965 98.484124 18.843468 9.125579 -41.902272 -27.286981 1.202446 0.270775 9.784517 0.602085 0.311594 9.812608 0.000000 0.000000 0.000000 0.000000 0.000000 0.000000 0.000000 
-0.391386 18.104374 1.252390 2.324662 9.362826 8.757990 1.060175 14.374466 -2.450687 -28.350309 -8.797289 -9.164669 16.819987 -10.100293 -17.167515 1.593696 15.283929 57.849341 0.000000 0.000000 0.000000 17.487971 -17.232123 14.326896 -1.508763 7.450503 -15.742822 20.995360 -20.975795 29.177303 30.878819 -47.445622 8.475706 0.000000 0.000000 0.000000 -14.405969 2.526709 -3.855839 18.446218 -5.899959 50.132094 -2.164975 0.966725 -34.741007 13.175379 -2.352941 -4.779508 -6.741246 -0.991630 -4.298129 0.000000 0.000000 0.000000 6.593344 17.538149 -10.818213 -85.079310 -3.693383 37.409507 -79.781124 -46.602758 1.000272 -3.372885 -7.887455 0.500960 -3.416532 -7.904411 0.000000 0.000000 0.000000 0.000000 0.000000 0.000000 0.000000 -23.394804 -16.669980 -4.298219 98.030213 18.388144 9.175244 -41.275080 -25.899557 1.145952 0.543466 9.258517 0.573789 0.581098 9.285528 0.000000 0.000000 0.000000 0.000000 0.000000 0.000000 0.000000 
-0.423695 18.149104 1.475790 1.661479 9.166878 9.272410 1.331114 15.661794 -0.711465 -27.841965 -10.177507 -10.882005 17.122165 -10.520226 -16.837815 1.354029 14.757214 57.446803 0.000000 0.000000 0.000000 18.316203 -18.597262 15.518846 -1.825842 8.137047 -17.123005 20.516427 -19.904449 28.864719 31.430090 -49.012271 9.396176 0.000000 0.000000 0.000000 -16.044405 2.104242 -6.367553 20.766573 -6.642805 51.311994 -1.913759 0.931547 -35.281960 12.964863 -2.287150 -4.984239 -6.545246 -0.954072 -3.749358 0.000000 0.000000 0.000000 7.162562 17.358732 -11.693685 -86.744839 -0.531829 43.285819 -77.053524 -55.516948 1.400327 -4.229230 -8.162178 0.703455 -4.315826 -8.181451 0.000000 0.000000 0.000000 0.000000 0.000000 0.000000 0.000000 -23.616921 -16.007731 -3.457032 97.342230 17.906125 9.050658 -41.261229 -24.004756 1.099659 0.740871 8.797206 0.550611 0.775976 8.823439 0.000000 0.000000 0.000000 0.000000 0.000000 0.000000 0.000000 
-0.456270 18.193136 1.697028 0.959134 8.812540 9.814193 1.567211 16.851308 0.945853 -27.144063 -11.453813 -12.613456 17.420383 -10.873901 -16.532341 1.169688 14.295184 57.037284 0.000000 0.000000 0.000000 19.173884 -20.030778 16.783629 -2.259333 8.901104 -18.650993 19.998145 -18.784932 28.632374 31.940433 -50.520394 10.288944 0.000000 0.000000 0.000000 -17.696660 1.607208 -8.878310 23.185357 -7.358583 52.176911 -1.709336 0.899452 -35.624895 12.689233 -2.174304 -5.057008 -6.267068 -0.893785 -3.116303 0.000000 0.000000 0.000000 7.771166 17.021918 -12.547817 -88.557828 2.710396 49.574762 -71.353279 -65.069721 1.809394 -4.982067 -8.388000 0.911248 -5.117998 -8.410045 0.000000 0.000000 0.000000 0.000000 0.000000 0.000000 0.000000 -23.849357 -15.274609 -2.600739 96.608261 17.416087 8.926950 -41.212236 -22.256885 1.052409 0.914205 8.342394 0.526954 0.946752 8.367783 0.000000 0.000000 0.000000 0.000000 0.000000 0.000000 0.000000 
